<?xml version="1.0" encoding="utf-8"?>
<!-- Generator: Adobe Illustrator 26.0.3, SVG Export Plug-In . SVG Version: 6.00 Build 0)  -->
<svg version="1.1" id="Layer_1" xmlns:vectornator="http://vectornator.io"
	 xmlns="http://www.w3.org/2000/svg" xmlns:xlink="http://www.w3.org/1999/xlink" x="0px" y="0px" viewBox="0 0 710.9 1080"
	 style="enable-background:new 0 0 710.9 1080;" xml:space="preserve">
<style type="text/css">
	.st0{fill:#FFFFFF;}
	.st1{clip-path:url(#SVGID_00000114057227456283449150000010502667470099229115_);}
	.st2{opacity:0.2401;}
	.st3{clip-path:url(#SVGID_00000094609850949957231160000001213734798065757316_);}
	.st4{opacity:0.49;}
	.st5{fill:none;stroke:#231F20;stroke-width:1.8151;stroke-miterlimit:7.2605;}
	.st6{clip-path:url(#SVGID_00000056428108101414710520000012907937451495820172_);}
	.st7{fill:none;stroke:#7070D6;stroke-width:3.6303;stroke-miterlimit:7.2605;}
	.st8{fill:#7070D6;}
	.st9{fill:none;stroke:#F97380;stroke-width:1.8151;stroke-miterlimit:7.2605;}
	.st10{fill:#231F20;}
	.st12{fill:#0056A7;fill-opacity:0.15;stroke:#FF0000;stroke-miterlimit:7.2605;}
	.st13{fill:#0056A7;fill-opacity:0.05;stroke:#FF0000;stroke-width:2;stroke-miterlimit:7.2605;}
</style>
<rect class="st0" width="710.9" height="1059"/>
<g id="Untitled" vectornator:layerName="Untitled">
	<g>
		<g transform="matrix(0.22132 0 0 0.22132 45.001 39.0024)">
			
				<image style="overflow:visible;enable-background:new    ;" width="1605" height="2409" id="Image" xlink:href="37A7E3CB.jpg"  transform="matrix(1.8196 0 0 1.8393 93.2525 93.386)">
			</image>
		</g>
		<g>
			<g vectornator:mask="#Mask">
				<g>
					<g>
						<defs>
							<rect id="SVGID_1_" x="-15.5" y="0" width="745.1" height="1080"/>
						</defs>
						<clipPath id="SVGID_00000140724774851634224090000012893106265125234094_">
							<use xlink:href="#SVGID_1_"  style="overflow:visible;"/>
						</clipPath>
						<g style="clip-path:url(#SVGID_00000140724774851634224090000012893106265125234094_);">
							<g vectornator:mask="#Mask_2" class="st2">
								<g>
									<g>
										<defs>
											
												<rect id="SVGID_00000016041855429130341230000000841590730482747287_" x="257.3" y="652.3" width="277.5" height="237.4"/>
										</defs>
										<clipPath id="SVGID_00000026878527501750255090000003855331087981281153_">
											<use xlink:href="#SVGID_00000016041855429130341230000000841590730482747287_"  style="overflow:visible;"/>
										</clipPath>
										<g style="clip-path:url(#SVGID_00000026878527501750255090000003855331087981281153_);">
											<g class="st4">
												<g transform="matrix(0.24 0 0 0.24 150.32 359.368)">
												</g>
												<g transform="matrix(0.24 0 0 0.24 150.32 359.368)">
												</g>
												<g transform="matrix(0.24 0 0 0.24 150.32 359.368)">
												</g>
											</g>
										</g>
									</g>
								</g>
							</g>
						</g>
					</g>
				</g>
			</g>
			<path class="st5" d="M549.6,1021.3H226.5V680.7h323.1V1021.3z"/>
			<g vectornator:mask="#Mask_3">
				<g>
					<g>
						<defs>
							<rect id="SVGID_00000013185211790884955560000009588940691056679837_" x="-15.5" y="0" width="745.1" height="1080"/>
						</defs>
						<clipPath id="SVGID_00000102511116290763853080000003016498243528658835_">
							<use xlink:href="#SVGID_00000013185211790884955560000009588940691056679837_"  style="overflow:visible;"/>
						</clipPath>
						<g style="clip-path:url(#SVGID_00000102511116290763853080000003016498243528658835_);">
							<g>
								<path class="st7" d="M470.9,566.3c0,0-43.8,20.8-56.1,70.1"/>
								<path class="st8" d="M407.9,629.6l4,32.3l12.7-30L407.9,629.6z"/>
							</g>
						</g>
					</g>
				</g>
			</g>
			<path class="st5" d="M653.8,112.8l0.4-48.7l-542.7,0.2v47.1"/>
			<path class="st5" d="M74.2,626.9L223.5,540"/>
			<path class="st5" d="M390.4,64.1V44.8"/>
			<path class="st9" d="M362,726.4l9.7,24.8"/>
			<path class="st9" d="M401.9,716.7l1.5,29.9"/>
		</g>
		<g>
			<g>
				<path class="st10" d="M353.3,15.8c2.1,0,3.8,0.6,5,1.7s1.8,2.4,2,3.8H358c-0.3-1.1-0.8-2-1.5-2.6c-0.8-0.6-1.8-1-3.2-1
					c-1.7,0-3,0.6-4,1.8c-1,1.2-1.5,3-1.5,5.4c0,2,0.5,3.6,1.4,4.8c0.9,1.2,2.3,1.8,4.1,1.8c1.7,0,3-0.6,3.9-1.9
					c0.5-0.7,0.8-1.6,1-2.7h2.2c-0.2,1.8-0.9,3.3-2,4.5c-1.3,1.5-3.2,2.2-5.4,2.2c-2,0-3.6-0.6-5-1.8c-1.8-1.6-2.6-4-2.6-7.3
					c0-2.5,0.7-4.5,2-6.1C348.8,16.6,350.8,15.8,353.3,15.8z"/>
				<path class="st10" d="M368.1,20.6c0.9,0,1.7,0.2,2.5,0.6s1.4,0.9,1.9,1.6c0.4,0.6,0.7,1.3,0.8,2.2c0.1,0.6,0.2,1.5,0.2,2.7h-9
					c0,1.3,0.3,2.3,0.9,3c0.6,0.8,1.4,1.1,2.6,1.1c1.1,0,1.9-0.4,2.6-1.1c0.4-0.4,0.6-0.9,0.8-1.4h2c-0.1,0.5-0.2,1-0.5,1.5
					c-0.3,0.6-0.6,1-1,1.4c-0.6,0.6-1.4,1-2.3,1.2c-0.5,0.1-1.1,0.2-1.7,0.2c-1.5,0-2.8-0.6-3.9-1.7c-1.1-1.1-1.6-2.7-1.6-4.7
					s0.5-3.6,1.6-4.8C364.9,21.2,366.4,20.6,368.1,20.6z M371.4,26c-0.1-0.9-0.3-1.6-0.6-2.2c-0.6-1-1.5-1.5-2.8-1.5
					c-1,0-1.8,0.3-2.4,1s-1,1.6-1,2.6h6.8V26z"/>
				<path class="st10" d="M376.1,20.8h2V23c0.2-0.4,0.6-0.9,1.2-1.5s1.4-0.9,2.2-0.9c0,0,0.1,0,0.2,0s0.3,0,0.5,0v2.2
					c-0.1,0-0.2,0-0.3,0c-0.1,0-0.2,0-0.3,0c-1,0-1.8,0.3-2.4,1s-0.8,1.4-0.8,2.3v7.1h-2.1V20.8H376.1z"/>
				<path class="st10" d="M389.1,20.6c0.9,0,1.7,0.2,2.5,0.6s1.4,0.9,1.9,1.6c0.4,0.6,0.7,1.3,0.8,2.2c0.1,0.6,0.2,1.5,0.2,2.7h-9
					c0,1.3,0.3,2.3,0.9,3c0.6,0.8,1.4,1.1,2.6,1.1c1.1,0,1.9-0.4,2.6-1.1c0.4-0.4,0.6-0.9,0.8-1.4h2c-0.1,0.5-0.2,1-0.5,1.5
					c-0.3,0.6-0.6,1-1,1.4c-0.6,0.6-1.4,1-2.3,1.2c-0.5,0.1-1.1,0.2-1.7,0.2c-1.5,0-2.8-0.6-3.9-1.7c-1.1-1.1-1.6-2.7-1.6-4.7
					s0.5-3.6,1.6-4.8C385.9,21.2,387.3,20.6,389.1,20.6z M392.4,26c-0.1-0.9-0.3-1.6-0.6-2.2c-0.6-1-1.5-1.5-2.8-1.5
					c-1,0-1.8,0.3-2.4,1s-1,1.6-1,2.6h6.8V26z"/>
				<path class="st10" d="M396.9,16.2h2v6.1c0.5-0.6,1-1,1.6-1.4c0.6-0.3,1.3-0.5,2.1-0.5c1.5,0,2.8,0.5,3.7,1.6
					c1,1.1,1.4,2.6,1.4,4.7c0,2-0.5,3.6-1.4,4.9c-0.9,1.3-2.3,1.9-3.9,1.9c-0.9,0-1.7-0.2-2.4-0.7c-0.4-0.3-0.8-0.7-1.2-1.3v1.6
					h-1.9L396.9,16.2L396.9,16.2z M402.3,31.7c1.1,0,2-0.4,2.5-1.3c0.6-0.9,0.8-2.1,0.8-3.5c0-1.3-0.3-2.4-0.8-3.2
					c-0.6-0.9-1.4-1.3-2.5-1.3c-0.9,0-1.8,0.3-2.5,1s-1.1,1.9-1.1,3.5c0,1.2,0.1,2.1,0.4,2.8C399.8,31,400.8,31.7,402.3,31.7z"/>
				<path class="st10" d="M410.2,20.8h2V23c0.2-0.4,0.6-0.9,1.2-1.5s1.4-0.9,2.2-0.9c0,0,0.1,0,0.2,0s0.3,0,0.5,0v2.2
					c-0.1,0-0.2,0-0.3,0c-0.1,0-0.2,0-0.3,0c-1,0-1.8,0.3-2.4,1s-0.8,1.4-0.8,2.3v7.1h-2.1V20.8H410.2z"/>
				<path class="st10" d="M420.1,20.8V29c0,0.6,0.1,1.1,0.3,1.5c0.4,0.7,1.1,1.1,2.1,1.1c1.4,0,2.4-0.6,2.9-1.9
					c0.3-0.7,0.4-1.6,0.4-2.8v-6.1h2.1v12.3h-2v-1.8c-0.3,0.5-0.6,0.9-1,1.2c-0.8,0.6-1.7,1-2.9,1c-1.8,0-3-0.6-3.6-1.8
					c-0.3-0.6-0.5-1.5-0.5-2.5v-8.4C417.9,20.8,420.1,20.8,420.1,20.8z"/>
				<path class="st10" d="M431.2,20.8h2.1v1.8c0.5-0.6,0.9-1,1.3-1.3c0.7-0.5,1.5-0.7,2.3-0.7c1,0,1.8,0.2,2.4,0.7
					c0.3,0.3,0.6,0.7,0.9,1.2c0.5-0.7,1-1.2,1.6-1.5s1.3-0.5,2.1-0.5c1.7,0,2.8,0.6,3.4,1.8c0.3,0.6,0.5,1.5,0.5,2.6v8.2h-2.2v-8.6
					c0-0.8-0.2-1.4-0.6-1.7c-0.4-0.3-0.9-0.5-1.5-0.5c-0.8,0-1.5,0.3-2.1,0.8s-0.9,1.5-0.9,2.7V33h-2.1v-8.1c0-0.8-0.1-1.4-0.3-1.8
					c-0.3-0.6-0.9-0.9-1.8-0.9c-0.8,0-1.5,0.3-2.1,0.9s-1,1.7-1,3.3v6.5h-2.1V20.8H431.2z"/>
			</g>
			<g>
				<path class="st10" d="M339.8,1029.8h2.3v7h8.8v-7h2.3v16.9h-2.3v-7.9h-8.8v7.9h-2.3V1029.8z"/>
				<path class="st10" d="M356.5,1034.5h2.1v12.3h-2.1V1034.5z M356.5,1029.8h2.1v2.4h-2.1V1029.8z"/>
				<path class="st10" d="M366.9,1045.3c1,0,1.8-0.4,2.4-1.2c0.6-0.8,1-2,1-3.6c0-1-0.1-1.8-0.4-2.5c-0.5-1.4-1.5-2-2.9-2
					s-2.4,0.7-2.9,2.2c-0.3,0.8-0.4,1.7-0.4,2.9c0,1,0.1,1.8,0.4,2.4C364.5,1044.7,365.5,1045.3,366.9,1045.3z M361.6,1034.5h2v1.6
					c0.4-0.6,0.9-1,1.4-1.3c0.7-0.5,1.5-0.7,2.5-0.7c1.4,0,2.6,0.5,3.6,1.6s1.5,2.6,1.5,4.6c0,2.7-0.7,4.6-2.1,5.8
					c-0.9,0.7-1.9,1.1-3.1,1.1c-0.9,0-1.7-0.2-2.3-0.6c-0.4-0.2-0.8-0.6-1.2-1.2v6.3h-2.1v-17.2H361.6z"/>
				<path class="st10" d="M380.1,1045.3c1,0,1.8-0.4,2.4-1.2c0.6-0.8,1-2,1-3.6c0-1-0.1-1.8-0.4-2.5c-0.5-1.4-1.5-2-2.9-2
					s-2.4,0.7-2.9,2.2c-0.3,0.8-0.4,1.7-0.4,2.9c0,1,0.1,1.8,0.4,2.4C377.6,1044.7,378.6,1045.3,380.1,1045.3z M374.7,1034.5h2v1.6
					c0.4-0.6,0.9-1,1.4-1.3c0.7-0.5,1.5-0.7,2.5-0.7c1.4,0,2.6,0.5,3.6,1.6s1.5,2.6,1.5,4.6c0,2.7-0.7,4.6-2.1,5.8
					c-0.9,0.7-1.9,1.1-3.1,1.1c-0.9,0-1.7-0.2-2.3-0.6c-0.4-0.2-0.8-0.6-1.2-1.2v6.3h-2.1v-17.2H374.7z"/>
				<path class="st10" d="M392.9,1045.4c1.4,0,2.3-0.5,2.8-1.6c0.5-1,0.8-2.2,0.8-3.5c0-1.2-0.2-2.1-0.6-2.8c-0.6-1.1-1.6-1.7-3-1.7
					c-1.3,0-2.2,0.5-2.8,1.5c-0.6,1-0.9,2.1-0.9,3.5c0,1.3,0.3,2.4,0.9,3.3C390.7,1045,391.6,1045.4,392.9,1045.4z M393,1034
					c1.6,0,2.9,0.5,4,1.6s1.6,2.6,1.6,4.7c0,2-0.5,3.6-1.5,4.9s-2.5,1.9-4.5,1.9c-1.7,0-3-0.6-4-1.7s-1.5-2.7-1.5-4.6
					c0-2.1,0.5-3.7,1.6-5C389.8,1034.7,391.2,1034,393,1034z"/>
				<path class="st10" d="M405.9,1034c1.4,0,2.5,0.3,3.4,1s1.4,1.8,1.6,3.5h-2c-0.1-0.8-0.4-1.4-0.8-1.9s-1.1-0.8-2.1-0.8
					c-1.3,0-2.3,0.6-2.8,1.9c-0.4,0.8-0.6,1.9-0.6,3.1s0.3,2.3,0.8,3.1c0.5,0.8,1.3,1.3,2.5,1.3c0.9,0,1.5-0.3,2-0.8s0.8-1.2,1-2.2
					h2c-0.2,1.6-0.8,2.8-1.7,3.6c-0.9,0.8-2.1,1.1-3.5,1.1c-1.6,0-2.9-0.6-3.9-1.8c-1-1.2-1.4-2.7-1.4-4.4c0-2.2,0.5-3.9,1.6-5.1
					C402.9,1034.6,404.2,1034,405.9,1034z"/>
				<path class="st10" d="M414.5,1043.5c0,0.6,0.2,1.1,0.7,1.4c0.4,0.3,1,0.5,1.6,0.5c0.7,0,1.4-0.2,2.1-0.5
					c1.2-0.6,1.7-1.5,1.7-2.8v-1.7c-0.3,0.2-0.6,0.3-1,0.4s-0.8,0.2-1.2,0.2l-1.3,0.2c-0.8,0.1-1.3,0.3-1.7,0.5
					C414.8,1042.1,414.5,1042.7,414.5,1043.5z M419.5,1039.3c0.5-0.1,0.8-0.3,1-0.6c0.1-0.2,0.1-0.5,0.1-0.8c0-0.7-0.3-1.2-0.8-1.5
					s-1.2-0.5-2.2-0.5c-1.1,0-1.9,0.3-2.3,0.9c-0.3,0.3-0.4,0.8-0.5,1.4H413c0-1.5,0.5-2.6,1.5-3.2s2-0.9,3.3-0.9
					c1.5,0,2.6,0.3,3.5,0.8c0.9,0.6,1.3,1.4,1.3,2.6v7.1c0,0.2,0,0.4,0.1,0.5s0.3,0.2,0.6,0.2c0.1,0,0.2,0,0.3,0
					c0.1,0,0.2,0,0.4-0.1v1.5c-0.3,0.1-0.6,0.2-0.7,0.2c-0.2,0-0.4,0-0.7,0c-0.7,0-1.2-0.3-1.6-0.8c-0.2-0.3-0.3-0.6-0.4-1.1
					c-0.4,0.6-1,1-1.8,1.4s-1.7,0.6-2.6,0.6c-1.1,0-2.1-0.3-2.8-1s-1.1-1.6-1.1-2.6c0-1.1,0.4-2,1.1-2.7c0.7-0.6,1.6-1,2.8-1.2
					L419.5,1039.3z"/>
				<path class="st10" d="M426,1034.4h2.1v1.8c0.5-0.6,0.9-1,1.3-1.3c0.7-0.5,1.5-0.7,2.3-0.7c1,0,1.8,0.2,2.4,0.7
					c0.3,0.3,0.6,0.7,0.9,1.2c0.5-0.7,1-1.2,1.6-1.5s1.3-0.5,2.1-0.5c1.7,0,2.8,0.6,3.4,1.8c0.3,0.6,0.5,1.5,0.5,2.6v8.2h-2.2v-8.6
					c0-0.8-0.2-1.4-0.6-1.7c-0.4-0.3-0.9-0.5-1.5-0.5c-0.8,0-1.5,0.3-2.1,0.8s-0.9,1.5-0.9,2.7v7.2h-2.1v-8.1c0-0.8-0.1-1.4-0.3-1.8
					c-0.3-0.6-0.9-0.9-1.8-0.9c-0.8,0-1.5,0.3-2.1,0.9s-1,1.7-1,3.3v6.5h-2V1034.4z"/>
				<path class="st10" d="M450.9,1045.3c1,0,1.8-0.4,2.4-1.2c0.6-0.8,1-2,1-3.6c0-1-0.1-1.8-0.4-2.5c-0.5-1.4-1.5-2-2.9-2
					s-2.4,0.7-2.9,2.2c-0.3,0.8-0.4,1.7-0.4,2.9c0,1,0.1,1.8,0.4,2.4C448.5,1044.7,449.5,1045.3,450.9,1045.3z M445.5,1034.5h2v1.6
					c0.4-0.6,0.9-1,1.4-1.3c0.7-0.5,1.5-0.7,2.5-0.7c1.4,0,2.6,0.5,3.6,1.6s1.5,2.6,1.5,4.6c0,2.7-0.7,4.6-2.1,5.8
					c-0.9,0.7-1.9,1.1-3.1,1.1c-0.9,0-1.7-0.2-2.3-0.6c-0.4-0.2-0.8-0.6-1.2-1.2v6.3h-2.1v-17.2H445.5z"/>
				<path class="st10" d="M460.9,1034.4v8.2c0,0.6,0.1,1.1,0.3,1.5c0.4,0.7,1.1,1.1,2.1,1.1c1.4,0,2.4-0.6,2.9-1.9
					c0.3-0.7,0.4-1.6,0.4-2.8v-6.1h2.1v12.3h-2v-1.8c-0.3,0.5-0.6,0.9-1,1.2c-0.8,0.6-1.7,1-2.9,1c-1.8,0-3-0.6-3.6-1.8
					c-0.3-0.6-0.5-1.5-0.5-2.5v-8.4L460.9,1034.4L460.9,1034.4z"/>
				<path class="st10" d="M473.2,1042.9c0.1,0.7,0.2,1.2,0.5,1.6c0.5,0.7,1.4,1,2.7,1c0.8,0,1.4-0.2,2-0.5s0.9-0.9,0.9-1.6
					c0-0.5-0.2-0.9-0.7-1.2c-0.3-0.2-0.9-0.4-1.8-0.6l-1.6-0.4c-1.1-0.3-1.8-0.6-2.3-0.9c-0.9-0.6-1.3-1.3-1.3-2.3
					c0-1.2,0.4-2.1,1.3-2.8c0.8-0.7,2-1.1,3.4-1.1c1.9,0,3.2,0.5,4,1.6c0.5,0.7,0.8,1.4,0.7,2.2h-2c0-0.5-0.2-0.9-0.5-1.3
					c-0.5-0.5-1.3-0.8-2.5-0.8c-0.8,0-1.4,0.1-1.8,0.5c-0.4,0.3-0.6,0.7-0.6,1.2s0.3,1,0.8,1.3c0.3,0.2,0.8,0.4,1.4,0.5l1.4,0.3
					c1.5,0.4,2.5,0.7,3,1c0.8,0.5,1.2,1.4,1.2,2.5s-0.4,2-1.3,2.8c-0.8,0.8-2.1,1.2-3.8,1.2c-1.8,0-3.1-0.4-3.9-1.3
					c-0.8-0.8-1.2-1.9-1.2-3.1h2V1042.9z"/>
			</g>
			<g>
				<path class="st10" d="M53.4,746.8c2.1,0,3.8,0.6,5,1.7c1.2,1.1,1.8,2.4,2,3.8h-2.2c-0.3-1.1-0.8-2-1.5-2.6c-0.8-0.6-1.8-1-3.2-1
					c-1.7,0-3,0.6-4,1.8s-1.5,3-1.5,5.4c0,2,0.5,3.6,1.4,4.8s2.3,1.8,4.1,1.8c1.7,0,3-0.6,3.9-1.9c0.5-0.7,0.8-1.6,1-2.7h2.2
					c-0.2,1.8-0.9,3.3-2,4.5c-1.3,1.5-3.2,2.2-5.4,2.2c-2,0-3.6-0.6-5-1.8c-1.8-1.6-2.6-4-2.6-7.3c0-2.5,0.7-4.5,2-6.1
					C48.9,747.6,50.8,746.8,53.4,746.8z"/>
				<path class="st10" d="M68.1,751.5c0.9,0,1.7,0.2,2.5,0.6c0.8,0.4,1.4,0.9,1.9,1.6c0.4,0.6,0.7,1.3,0.8,2.2
					c0.1,0.6,0.2,1.5,0.2,2.7h-9c0,1.3,0.3,2.3,0.9,3c0.6,0.8,1.4,1.1,2.6,1.1c1.1,0,1.9-0.4,2.6-1.1c0.4-0.4,0.6-0.9,0.8-1.4h2
					c-0.1,0.5-0.2,1-0.5,1.5c-0.3,0.6-0.6,1-1,1.4c-0.6,0.6-1.4,1-2.3,1.2c-0.5,0.1-1.1,0.2-1.7,0.2c-1.5,0-2.8-0.6-3.9-1.7
					c-1.1-1.1-1.6-2.7-1.6-4.7s0.5-3.6,1.6-4.8C65,752.2,66.4,751.5,68.1,751.5z M71.4,757c-0.1-0.9-0.3-1.6-0.6-2.2
					c-0.6-1-1.5-1.5-2.8-1.5c-1,0-1.8,0.3-2.4,1s-1,1.6-1,2.6h6.8V757z"/>
				<path class="st10" d="M76.2,751.8h2v2.1c0.2-0.4,0.6-0.9,1.2-1.5s1.4-0.9,2.2-0.9c0,0,0.1,0,0.2,0s0.2,0,0.5,0v2.2
					c-0.1,0-0.2,0-0.3,0c-0.1,0-0.2,0-0.3,0c-1,0-1.8,0.3-2.4,1s-0.8,1.4-0.8,2.3v7.1h-2.1v-12.3H76.2z"/>
				<path class="st10" d="M89.1,751.5c0.9,0,1.7,0.2,2.5,0.6c0.8,0.4,1.4,0.9,1.9,1.6c0.4,0.6,0.7,1.3,0.8,2.2
					c0.1,0.6,0.2,1.5,0.2,2.7h-9c0,1.3,0.3,2.3,0.9,3c0.6,0.8,1.4,1.1,2.6,1.1c1.1,0,1.9-0.4,2.6-1.1c0.4-0.4,0.6-0.9,0.8-1.4h2
					c-0.1,0.5-0.2,1-0.5,1.5c-0.3,0.6-0.6,1-1,1.4c-0.6,0.6-1.4,1-2.3,1.2c-0.5,0.1-1.1,0.2-1.7,0.2c-1.5,0-2.8-0.6-3.9-1.7
					s-1.6-2.7-1.6-4.7s0.5-3.6,1.6-4.8C86,752.2,87.4,751.5,89.1,751.5z M92.4,757c-0.1-0.9-0.3-1.6-0.6-2.2c-0.6-1-1.5-1.5-2.8-1.5
					c-1,0-1.8,0.3-2.4,1s-1,1.6-1,2.6h6.8V757z"/>
				<path class="st10" d="M96.9,747.2h2v6.1c0.5-0.6,1-1,1.6-1.4c0.6-0.3,1.3-0.5,2.1-0.5c1.5,0,2.8,0.5,3.7,1.6
					c1,1.1,1.4,2.6,1.4,4.7c0,2-0.5,3.6-1.4,4.9c-0.9,1.3-2.3,1.9-3.9,1.9c-0.9,0-1.7-0.2-2.4-0.7c-0.4-0.3-0.8-0.7-1.2-1.3v1.6
					h-1.9C96.9,764.1,96.9,747.2,96.9,747.2z M102.3,762.7c1.1,0,2-0.4,2.5-1.3c0.6-0.9,0.8-2.1,0.8-3.5c0-1.3-0.3-2.4-0.8-3.2
					c-0.6-0.9-1.4-1.3-2.5-1.3c-0.9,0-1.8,0.4-2.5,1c-0.7,0.7-1.1,1.9-1.1,3.5c0,1.2,0.1,2.1,0.4,2.8
					C99.8,762,100.8,762.7,102.3,762.7z"/>
				<path class="st10" d="M110.3,751.8h2v2.1c0.2-0.4,0.6-0.9,1.2-1.5s1.4-0.9,2.2-0.9c0,0,0.1,0,0.2,0s0.2,0,0.5,0v2.2
					c-0.1,0-0.2,0-0.3,0c-0.1,0-0.2,0-0.3,0c-1,0-1.8,0.3-2.4,1s-0.8,1.4-0.8,2.3v7.1h-2.1v-12.3H110.3z"/>
				<path class="st10" d="M119.7,760.9c0,0.6,0.2,1.1,0.7,1.4c0.4,0.3,1,0.5,1.6,0.5c0.7,0,1.4-0.2,2.1-0.5c1.2-0.6,1.7-1.5,1.7-2.8
					v-1.7c-0.3,0.2-0.6,0.3-1,0.4c-0.4,0.1-0.8,0.2-1.2,0.2l-1.3,0.2c-0.8,0.1-1.3,0.3-1.7,0.5C120,759.5,119.7,760.1,119.7,760.9z
					 M124.7,756.7c0.5-0.1,0.8-0.3,1-0.6c0.1-0.2,0.1-0.5,0.1-0.8c0-0.7-0.3-1.2-0.8-1.5s-1.2-0.5-2.2-0.5c-1.1,0-1.9,0.3-2.3,0.9
					c-0.3,0.3-0.4,0.8-0.5,1.4h-1.9c0-1.5,0.5-2.6,1.5-3.2c0.9-0.6,2-0.9,3.3-0.9c1.5,0,2.6,0.3,3.5,0.8c0.9,0.6,1.3,1.4,1.3,2.6
					v7.1c0,0.2,0,0.4,0.1,0.5s0.3,0.2,0.6,0.2c0.1,0,0.2,0,0.3,0s0.2,0,0.4-0.1v1.5c-0.3,0.1-0.6,0.2-0.7,0.2c-0.2,0-0.4,0-0.7,0
					c-0.7,0-1.2-0.3-1.6-0.8c-0.2-0.3-0.3-0.6-0.4-1.1c-0.4,0.6-1,1-1.8,1.4s-1.7,0.6-2.6,0.6c-1.1,0-2.1-0.3-2.8-1
					c-0.7-0.7-1.1-1.6-1.1-2.6c0-1.1,0.4-2,1.1-2.7c0.7-0.6,1.7-1,2.8-1.2L124.7,756.7z"/>
				<path class="st10" d="M131.3,747.2h2.1v16.9h-2.1V747.2z"/>
				<path class="st10" d="M147.8,751.5c1.4,0,2.5,0.3,3.4,1s1.4,1.8,1.6,3.5h-2c-0.1-0.8-0.4-1.4-0.8-1.9c-0.4-0.5-1.1-0.8-2.1-0.8
					c-1.3,0-2.3,0.6-2.8,1.9c-0.4,0.8-0.6,1.9-0.6,3.1c0,1.2,0.3,2.3,0.8,3.1s1.3,1.3,2.5,1.3c0.9,0,1.5-0.3,2-0.8s0.9-1.2,1-2.2h2
					c-0.2,1.6-0.8,2.8-1.7,3.6s-2.1,1.1-3.5,1.1c-1.6,0-2.9-0.6-3.9-1.8s-1.4-2.7-1.4-4.4c0-2.2,0.5-3.9,1.6-5.1
					C144.8,752.1,146.1,751.5,147.8,751.5z"/>
				<path class="st10" d="M159.7,762.8c1.4,0,2.3-0.5,2.8-1.6c0.5-1,0.8-2.2,0.8-3.5c0-1.2-0.2-2.1-0.6-2.8c-0.6-1.1-1.6-1.7-3-1.7
					c-1.3,0-2.2,0.5-2.8,1.5s-0.9,2.1-0.9,3.5c0,1.3,0.3,2.4,0.9,3.3C157.5,762.4,158.4,762.8,159.7,762.8z M159.8,751.5
					c1.6,0,2.9,0.5,4,1.6s1.6,2.6,1.6,4.7c0,2-0.5,3.6-1.5,4.9c-1,1.3-2.5,1.9-4.5,1.9c-1.7,0-3-0.6-4-1.7c-1-1.1-1.5-2.7-1.5-4.6
					c0-2.1,0.5-3.7,1.6-5C156.6,752.1,158,751.5,159.8,751.5z"/>
				<path class="st10" d="M168,751.8h2v2.1c0.2-0.4,0.6-0.9,1.2-1.5c0.6-0.6,1.4-0.9,2.2-0.9c0,0,0.1,0,0.2,0c0.1,0,0.3,0,0.5,0v2.2
					c-0.1,0-0.2,0-0.3,0s-0.2,0-0.3,0c-1,0-1.8,0.3-2.4,1c-0.6,0.7-0.8,1.4-0.8,2.3v7.1H168V751.8z"/>
				<path class="st10" d="M176.2,748.4h2.1v3.4h2v1.7h-2v8.1c0,0.4,0.1,0.7,0.4,0.9c0.2,0.1,0.4,0.1,0.8,0.1c0.1,0,0.2,0,0.3,0
					s0.2,0,0.4,0v1.6c-0.2,0.1-0.5,0.1-0.7,0.1c-0.3,0-0.5,0-0.8,0c-1,0-1.6-0.2-2-0.7c-0.3-0.5-0.5-1.1-0.5-1.9v-8.2h-1.7v-1.7h1.7
					V748.4z"/>
				<path class="st10" d="M187.5,751.5c0.9,0,1.7,0.2,2.5,0.6c0.8,0.4,1.4,0.9,1.9,1.6c0.4,0.6,0.7,1.3,0.8,2.2
					c0.1,0.6,0.2,1.5,0.2,2.7h-9c0,1.3,0.3,2.3,0.9,3c0.6,0.8,1.4,1.1,2.6,1.1c1.1,0,1.9-0.4,2.6-1.1c0.4-0.4,0.6-0.9,0.8-1.4h2
					c-0.1,0.5-0.2,1-0.5,1.5c-0.3,0.6-0.6,1-1,1.4c-0.6,0.6-1.4,1-2.3,1.2c-0.5,0.1-1.1,0.2-1.7,0.2c-1.5,0-2.8-0.6-3.9-1.7
					c-1.1-1.1-1.6-2.7-1.6-4.7s0.5-3.6,1.6-4.8C184.3,752.2,185.7,751.5,187.5,751.5z M190.8,757c-0.1-0.9-0.3-1.6-0.6-2.2
					c-0.6-1-1.5-1.5-2.8-1.5c-1,0-1.8,0.3-2.4,1c-0.6,0.7-1,1.6-1,2.6h6.8V757z"/>
				<path class="st10" d="M194.3,751.8h2.7l2.8,4.3l2.9-4.3l2.5,0.1l-4.2,6l4.3,6.3h-2.7l-3.1-4.6l-3,4.6h-2.6l4.3-6.3L194.3,751.8z
					"/>
			</g>
			<g>
				<path class="st10" d="M51.4,775.3c-1.2,2.3-2,4.1-2.4,5.2c-0.5,1.7-0.8,3.6-0.8,5.8s0.3,4.3,0.9,6.1c0.4,1.1,1.1,2.8,2.3,4.9H50
					c-1.1-1.8-1.8-2.9-2.1-3.4s-0.6-1.1-0.9-2c-0.4-1.1-0.7-2.4-0.9-3.6c-0.1-0.7-0.1-1.3-0.1-1.9c0-2.3,0.4-4.3,1.1-6.1
					c0.5-1.1,1.4-2.8,2.8-5.1L51.4,775.3L51.4,775.3z"/>
				<path class="st10" d="M58.2,779.9c1,0,1.8,0.2,2.5,0.7c0.4,0.3,0.8,0.7,1.2,1.2v-1.6h1.9v11.2c0,1.6-0.2,2.8-0.7,3.7
					c-0.9,1.7-2.5,2.5-4.9,2.5c-1.3,0-2.4-0.3-3.4-0.9c-0.9-0.6-1.4-1.5-1.5-2.8h2.1c0.1,0.6,0.3,1,0.6,1.3c0.5,0.5,1.2,0.7,2.2,0.7
					c1.6,0,2.6-0.6,3.1-1.7c0.3-0.7,0.4-1.8,0.4-3.5c-0.4,0.6-0.9,1.1-1.5,1.4c-0.6,0.3-1.4,0.5-2.3,0.5c-1.3,0-2.5-0.5-3.5-1.4
					s-1.5-2.5-1.5-4.7c0-2.1,0.5-3.7,1.5-4.8C55.5,780.5,56.7,779.9,58.2,779.9z M61.9,786.2c0-1.5-0.3-2.7-0.9-3.4
					c-0.6-0.7-1.4-1.1-2.4-1.1c-1.5,0-2.5,0.7-3,2.1c-0.3,0.7-0.4,1.7-0.4,2.9c0,1.4,0.3,2.4,0.8,3.2c0.6,0.7,1.3,1.1,2.3,1.1
					c1.5,0,2.5-0.7,3.1-2C61.7,788.1,61.9,787.3,61.9,786.2z"/>
				<path class="st10" d="M67,780.1h2v2.1c0.2-0.4,0.6-0.9,1.2-1.5s1.4-0.9,2.2-0.9c0,0,0.1,0,0.2,0s0.2,0,0.5,0v2.2
					c-0.1,0-0.2,0-0.3,0c-0.1,0-0.2,0-0.3,0c-1,0-1.8,0.3-2.4,1s-0.8,1.4-0.8,2.3v7.1H67V780.1z"/>
				<path class="st10" d="M76.4,789.2c0,0.6,0.2,1.1,0.7,1.4c0.4,0.3,1,0.5,1.6,0.5c0.7,0,1.4-0.2,2.1-0.5c1.2-0.6,1.7-1.5,1.7-2.8
					v-1.7c-0.3,0.2-0.6,0.3-1,0.4c-0.4,0.1-0.8,0.2-1.2,0.2L79,787c-0.8,0.1-1.3,0.3-1.7,0.5C76.7,787.8,76.4,788.4,76.4,789.2z
					 M81.4,785c0.5-0.1,0.8-0.3,1-0.6c0.1-0.2,0.1-0.5,0.1-0.8c0-0.7-0.3-1.2-0.8-1.5s-1.2-0.5-2.2-0.5c-1.1,0-1.9,0.3-2.3,0.9
					c-0.3,0.3-0.4,0.8-0.5,1.4h-1.9c0-1.5,0.5-2.6,1.5-3.2c0.9-0.6,2-0.9,3.3-0.9c1.5,0,2.6,0.3,3.5,0.8c0.9,0.6,1.3,1.4,1.3,2.6
					v7.1c0,0.2,0,0.4,0.1,0.5s0.3,0.2,0.6,0.2c0.1,0,0.2,0,0.3,0c0.1,0,0.2,0,0.4-0.1v1.5c-0.3,0.1-0.6,0.2-0.7,0.2
					c-0.2,0-0.4,0-0.7,0c-0.7,0-1.2-0.3-1.6-0.8c-0.2-0.3-0.3-0.6-0.4-1.1c-0.4,0.6-1,1-1.8,1.4s-1.7,0.6-2.6,0.6
					c-1.1,0-2.1-0.3-2.8-1c-0.7-0.7-1.1-1.6-1.1-2.6c0-1.1,0.4-2,1.1-2.7c0.7-0.6,1.7-1,2.8-1.2L81.4,785z"/>
				<path class="st10" d="M95.6,780.1h2.3c-0.3,0.8-0.9,2.6-1.9,5.4c-0.8,2.1-1.4,3.8-1.9,5.2c-1.2,3.1-2,5.1-2.5,5.8s-1.3,1-2.5,1
					c-0.3,0-0.5,0-0.7,0s-0.4-0.1-0.6-0.1v-1.9c0.4,0.1,0.6,0.2,0.8,0.2c0.2,0,0.3,0,0.4,0c0.4,0,0.7-0.1,0.8-0.2
					c0.2-0.1,0.3-0.3,0.5-0.5c0-0.1,0.2-0.4,0.4-0.9c0.2-0.6,0.4-1,0.5-1.3l-4.6-12.7H89l3.3,10L95.6,780.1z"/>
				<path class="st10" d="M106.3,780.1h2.1v1.8c0.5-0.6,0.9-1,1.3-1.3c0.7-0.5,1.5-0.7,2.3-0.7c1,0,1.8,0.2,2.4,0.7
					c0.3,0.3,0.6,0.7,0.9,1.2c0.5-0.7,1-1.2,1.6-1.5s1.3-0.5,2.1-0.5c1.7,0,2.8,0.6,3.4,1.8c0.3,0.6,0.5,1.5,0.5,2.6v8.2h-2.2v-8.6
					c0-0.8-0.2-1.4-0.6-1.7s-0.9-0.5-1.5-0.5c-0.8,0-1.5,0.3-2.1,0.8s-0.9,1.5-0.9,2.7v7.2h-2.1v-8.1c0-0.8-0.1-1.4-0.3-1.8
					c-0.3-0.6-0.9-0.9-1.8-0.9c-0.8,0-1.5,0.3-2.1,0.9c-0.6,0.6-1,1.7-1,3.3v6.5h-2.1L106.3,780.1L106.3,780.1z"/>
				<path class="st10" d="M127.5,789.2c0,0.6,0.2,1.1,0.7,1.4c0.4,0.3,1,0.5,1.6,0.5c0.7,0,1.4-0.2,2.1-0.5c1.2-0.6,1.7-1.5,1.7-2.8
					v-1.7c-0.3,0.2-0.6,0.3-1,0.4c-0.4,0.1-0.8,0.2-1.2,0.2l-1.3,0.2c-0.8,0.1-1.3,0.3-1.7,0.5C127.8,787.8,127.5,788.4,127.5,789.2
					z M132.5,785c0.5-0.1,0.8-0.3,1-0.6c0.1-0.2,0.1-0.5,0.1-0.8c0-0.7-0.3-1.2-0.8-1.5s-1.2-0.5-2.2-0.5c-1.1,0-1.9,0.3-2.3,0.9
					c-0.3,0.3-0.4,0.8-0.5,1.4H126c0-1.5,0.5-2.6,1.5-3.2c0.9-0.6,2-0.9,3.3-0.9c1.5,0,2.6,0.3,3.5,0.8c0.9,0.6,1.3,1.4,1.3,2.6v7.1
					c0,0.2,0,0.4,0.1,0.5s0.3,0.2,0.6,0.2c0.1,0,0.2,0,0.3,0s0.2,0,0.4-0.1v1.5c-0.3,0.1-0.6,0.2-0.7,0.2c-0.2,0-0.4,0-0.7,0
					c-0.7,0-1.2-0.3-1.6-0.8c-0.2-0.3-0.3-0.6-0.4-1.1c-0.4,0.6-1,1-1.8,1.4s-1.7,0.6-2.6,0.6c-1.1,0-2.1-0.3-2.8-1
					c-0.7-0.7-1.1-1.6-1.1-2.6c0-1.1,0.4-2,1.1-2.7c0.7-0.6,1.7-1,2.8-1.2L132.5,785z"/>
				<path class="st10" d="M139.5,776.7h2.1v3.4h2v1.7h-2v8.1c0,0.4,0.1,0.7,0.4,0.9c0.2,0.1,0.4,0.1,0.8,0.1c0.1,0,0.2,0,0.3,0
					s0.2,0,0.4,0v1.6c-0.2,0.1-0.5,0.1-0.7,0.1c-0.3,0-0.5,0-0.8,0c-1,0-1.6-0.2-2-0.7c-0.3-0.5-0.5-1.1-0.5-1.9v-8.2h-1.7v-1.7h1.7
					V776.7z"/>
				<path class="st10" d="M146,776.7h2.1v3.4h2v1.7h-2v8.1c0,0.4,0.1,0.7,0.4,0.9c0.2,0.1,0.4,0.1,0.8,0.1c0.1,0,0.2,0,0.3,0
					s0.2,0,0.4,0v1.6c-0.2,0.1-0.5,0.1-0.7,0.1c-0.3,0-0.5,0-0.8,0c-1,0-1.6-0.2-2-0.7c-0.3-0.5-0.5-1.1-0.5-1.9v-8.2h-1.7v-1.7h1.7
					V776.7z"/>
				<path class="st10" d="M157.3,779.8c0.9,0,1.7,0.2,2.5,0.6c0.8,0.4,1.4,0.9,1.9,1.6c0.4,0.6,0.7,1.3,0.8,2.2
					c0.1,0.6,0.2,1.5,0.2,2.7h-9c0,1.3,0.3,2.3,0.9,3c0.6,0.8,1.4,1.1,2.6,1.1c1.1,0,1.9-0.4,2.6-1.1c0.4-0.4,0.6-0.9,0.8-1.4h2
					c-0.1,0.5-0.2,1-0.5,1.5c-0.3,0.6-0.6,1-1,1.4c-0.6,0.6-1.4,1-2.3,1.2c-0.5,0.1-1.1,0.2-1.7,0.2c-1.5,0-2.8-0.6-3.9-1.7
					c-1.1-1.1-1.6-2.7-1.6-4.7s0.5-3.6,1.6-4.8C154.2,780.5,155.6,779.8,157.3,779.8z M160.6,785.3c-0.1-0.9-0.3-1.6-0.6-2.2
					c-0.6-1-1.5-1.5-2.8-1.5c-1,0-1.8,0.3-2.4,1c-0.6,0.7-1,1.6-1,2.6h6.8V785.3z"/>
				<path class="st10" d="M165.3,780.1h2v2.1c0.2-0.4,0.6-0.9,1.2-1.5c0.6-0.6,1.4-0.9,2.2-0.9c0,0,0.1,0,0.2,0c0.1,0,0.2,0,0.5,0
					v2.2c-0.1,0-0.2,0-0.3,0s-0.2,0-0.3,0c-1,0-1.8,0.3-2.4,1c-0.6,0.7-0.8,1.4-0.8,2.3v7.1h-2.1v-12.3H165.3z"/>
				<path class="st10" d="M172.4,797.3c1.2-2.4,2-4.1,2.4-5.2c0.5-1.7,0.8-3.6,0.8-5.8s-0.3-4.3-0.9-6.1c-0.4-1.1-1.1-2.8-2.3-4.9
					h1.4c1.2,1.9,1.9,3.1,2.1,3.5c0.2,0.4,0.5,1.1,0.8,1.8c0.4,1,0.6,1.9,0.8,2.8c0.2,0.9,0.2,1.8,0.2,2.7c0,2.3-0.4,4.3-1.1,6.1
					c-0.5,1.1-1.4,2.8-2.8,5.1L172.4,797.3L172.4,797.3z"/>
			</g>
			<g>
				<path class="st10" d="M586,783.7h2.3v7h8.8v-7h2.3v16.9h-2.3v-7.9h-8.8v7.9H586V783.7z"/>
				<path class="st10" d="M602.7,788.4h2.1v12.3h-2.1V788.4z M602.7,783.7h2.1v2.4h-2.1V783.7z"/>
				<path class="st10" d="M608,783.7h2.1v16.9H608V783.7z"/>
				<path class="st10" d="M615.3,788.3v8.2c0,0.6,0.1,1.1,0.3,1.5c0.4,0.7,1.1,1.1,2.1,1.1c1.4,0,2.4-0.6,2.9-1.9
					c0.3-0.7,0.4-1.6,0.4-2.8v-6.1h2.1v12.3h-2v-1.8c-0.3,0.5-0.6,0.9-1,1.2c-0.8,0.6-1.8,1-2.9,1c-1.8,0-3-0.6-3.6-1.8
					c-0.3-0.6-0.5-1.5-0.5-2.5v-8.4H615.3z"/>
				<path class="st10" d="M627.5,796.8c0.1,0.7,0.2,1.2,0.5,1.6c0.5,0.7,1.4,1,2.7,1c0.8,0,1.4-0.2,2-0.5s0.9-0.9,0.9-1.6
					c0-0.5-0.2-0.9-0.7-1.2c-0.3-0.2-0.9-0.4-1.8-0.6l-1.6-0.4c-1.1-0.3-1.8-0.6-2.3-0.9c-0.9-0.6-1.3-1.3-1.3-2.3
					c0-1.2,0.4-2.1,1.3-2.8c0.8-0.7,2-1.1,3.4-1.1c1.9,0,3.2,0.5,4,1.6c0.5,0.7,0.8,1.4,0.7,2.2h-2c0-0.5-0.2-0.9-0.5-1.3
					c-0.5-0.5-1.3-0.8-2.5-0.8c-0.8,0-1.4,0.1-1.8,0.5c-0.4,0.3-0.6,0.7-0.6,1.2s0.3,1,0.8,1.3c0.3,0.2,0.8,0.4,1.4,0.5l1.4,0.3
					c1.5,0.4,2.5,0.7,3,1c0.8,0.5,1.2,1.4,1.2,2.5s-0.4,2-1.2,2.8s-2.1,1.2-3.8,1.2c-1.8,0-3.1-0.4-3.9-1.3
					c-0.8-0.8-1.2-1.9-1.2-3.1h1.9V796.8z"/>
			</g>
			<path class="st5" d="M395.9,773.2L578,797.4"/>
			<g>
				<path class="st10" d="M445.1,744.5c1.3,0,2.3,0.3,3.1,1s1.1,1.5,1.2,2.4H448c-0.2-0.7-0.5-1.2-0.9-1.6c-0.5-0.4-1.1-0.6-2-0.6
					c-1,0-1.9,0.4-2.5,1.1c-0.6,0.7-0.9,1.8-0.9,3.3c0,1.2,0.3,2.2,0.9,3s1.4,1.1,2.6,1.1c1,0,1.8-0.4,2.4-1.2
					c0.3-0.4,0.5-1,0.6-1.7h1.4c-0.1,1.1-0.5,2-1.2,2.8c-0.8,0.9-1.9,1.3-3.3,1.3c-1.2,0-2.2-0.4-3-1.1c-1.1-1-1.6-2.5-1.6-4.5
					c0-1.5,0.4-2.8,1.2-3.8C442.3,745,443.5,744.5,445.1,744.5z"/>
				<path class="st10" d="M456.5,750.9l-1.6-4.6l-1.7,4.6H456.5z M454.2,744.8h1.6l3.8,10.4H458l-1.1-3.1h-4.1l-1.1,3.1h-1.4
					L454.2,744.8z"/>
				<path class="st10" d="M461.1,748v-1c0.9-0.1,1.6-0.2,1.9-0.5c0.4-0.2,0.6-0.7,0.8-1.5h1v10.1h-1.4V748H461.1z"/>
			</g>
			<path class="st5" d="M108.6,742.2L246,618.7"/>
			<g>
				<path class="st10" d="M15.1,627l3.2,13.8l3.8-13.8h2.5l3.8,13.8l3.2-13.8h2.5l-4.4,16.9h-2.4l-3.9-14l-3.9,14h-2.4L12.6,627
					H15.1z"/>
				<path class="st10" d="M36,626.9h2.1v6.3c0.5-0.6,0.9-1.1,1.3-1.3c0.7-0.4,1.5-0.7,2.5-0.7c1.8,0,3,0.6,3.6,1.9
					c0.3,0.7,0.5,1.6,0.5,2.8v7.9h-2.1V636c0-0.9-0.1-1.6-0.3-2c-0.4-0.7-1.1-1-2.1-1c-0.9,0-1.6,0.3-2.3,0.9c-0.7,0.6-1,1.7-1,3.4
					v6.5H36V626.9z"/>
				<path class="st10" d="M49.1,631.6h2.1v12.3h-2.1V631.6z M49.1,627h2.1v2.4h-2.1V627z"/>
				<path class="st10" d="M54.8,628.1h2.1v3.4h2v1.7h-2v8.1c0,0.4,0.1,0.7,0.4,0.9c0.2,0.1,0.4,0.1,0.8,0.1c0.1,0,0.2,0,0.3,0
					s0.2,0,0.4,0v1.6c-0.2,0.1-0.5,0.1-0.7,0.1c-0.3,0-0.5,0-0.8,0c-1,0-1.6-0.2-2-0.7c-0.3-0.5-0.5-1.1-0.5-1.9v-8.2h-1.7v-1.7h1.7
					V628.1z"/>
				<path class="st10" d="M66.1,631.3c0.9,0,1.7,0.2,2.5,0.6c0.8,0.4,1.4,0.9,1.9,1.6c0.4,0.6,0.7,1.3,0.8,2.2
					c0.1,0.6,0.2,1.5,0.2,2.7h-9c0,1.3,0.3,2.3,0.9,3c0.6,0.7,1.4,1.1,2.6,1.1c1.1,0,1.9-0.4,2.6-1.1c0.4-0.4,0.6-0.9,0.8-1.4h2
					c-0.1,0.5-0.2,1-0.5,1.5c-0.3,0.6-0.6,1-1,1.4c-0.6,0.6-1.4,1-2.3,1.2c-0.5,0.1-1.1,0.2-1.7,0.2c-1.5,0-2.8-0.6-3.9-1.7
					c-1.1-1.1-1.6-2.7-1.6-4.7s0.5-3.6,1.6-4.8C62.9,631.9,64.3,631.3,66.1,631.3z M69.4,636.8c-0.1-0.9-0.3-1.6-0.6-2.2
					c-0.6-1-1.5-1.5-2.8-1.5c-1,0-1.8,0.3-2.4,1s-1,1.6-1,2.6h6.8V636.8z"/>
				<path class="st10" d="M80.6,631.6h2.1v1.8c0.5-0.6,0.9-1,1.3-1.3c0.7-0.5,1.5-0.7,2.3-0.7c1,0,1.8,0.2,2.4,0.7
					c0.3,0.3,0.6,0.7,0.9,1.2c0.5-0.7,1-1.2,1.6-1.5s1.3-0.5,2.1-0.5c1.7,0,2.8,0.6,3.4,1.8c0.3,0.6,0.5,1.5,0.5,2.6v8.2H95v-8.6
					c0-0.8-0.2-1.4-0.6-1.7s-0.9-0.5-1.5-0.5c-0.8,0-1.5,0.3-2.1,0.8s-0.9,1.5-0.9,2.7v7.2h-2.1v-8.1c0-0.8-0.1-1.4-0.3-1.8
					c-0.3-0.6-0.9-0.9-1.8-0.9c-0.8,0-1.5,0.3-2.1,0.9s-1,1.7-1,3.3v6.5h-2.1L80.6,631.6L80.6,631.6z"/>
				<path class="st10" d="M101.9,640.6c0,0.6,0.2,1.1,0.7,1.4c0.4,0.3,1,0.5,1.6,0.5c0.7,0,1.4-0.2,2.1-0.5c1.2-0.6,1.7-1.5,1.7-2.8
					v-1.7c-0.3,0.2-0.6,0.3-1,0.4c-0.4,0.1-0.8,0.2-1.2,0.2l-1.3,0.2c-0.8,0.1-1.3,0.3-1.7,0.5C102.2,639.3,101.9,639.9,101.9,640.6
					z M106.9,636.4c0.5-0.1,0.8-0.3,1-0.6c0.1-0.2,0.1-0.4,0.1-0.8c0-0.7-0.3-1.2-0.8-1.5S106,633,105,633c-1.1,0-1.9,0.3-2.3,0.9
					c-0.3,0.3-0.4,0.8-0.5,1.4h-1.9c0-1.5,0.5-2.6,1.5-3.2c0.9-0.6,2-0.9,3.3-0.9c1.5,0,2.6,0.3,3.5,0.8c0.9,0.6,1.3,1.4,1.3,2.6
					v7.1c0,0.2,0,0.4,0.1,0.5s0.3,0.2,0.6,0.2c0.1,0,0.2,0,0.3,0c0.1,0,0.2,0,0.4-0.1v1.5c-0.3,0.1-0.6,0.2-0.7,0.2
					c-0.2,0-0.4,0-0.7,0c-0.7,0-1.2-0.3-1.6-0.8c-0.2-0.3-0.3-0.6-0.4-1.1c-0.4,0.6-1,1-1.8,1.4s-1.7,0.6-2.6,0.6
					c-1.1,0-2.1-0.3-2.8-1c-0.7-0.7-1.1-1.6-1.1-2.6c0-1.1,0.4-2,1.1-2.7c0.7-0.6,1.7-1,2.8-1.2L106.9,636.4z"/>
				<path class="st10" d="M113.8,628.1h2.1v3.4h2v1.7h-2v8.1c0,0.4,0.1,0.7,0.4,0.9c0.2,0.1,0.4,0.1,0.8,0.1c0.1,0,0.2,0,0.3,0
					c0.1,0,0.2,0,0.4,0v1.6c-0.2,0.1-0.5,0.1-0.7,0.1c-0.3,0-0.5,0-0.8,0c-1,0-1.6-0.2-2-0.7c-0.3-0.5-0.5-1.1-0.5-1.9v-8.2h-1.7
					v-1.7h1.7C113.8,631.5,113.8,628.1,113.8,628.1z"/>
				<path class="st10" d="M120.4,628.1h2.1v3.4h2v1.7h-2v8.1c0,0.4,0.1,0.7,0.4,0.9c0.2,0.1,0.4,0.1,0.8,0.1c0.1,0,0.2,0,0.3,0
					c0.1,0,0.2,0,0.4,0v1.6c-0.2,0.1-0.5,0.1-0.7,0.1c-0.3,0-0.5,0-0.8,0c-1,0-1.6-0.2-2-0.7c-0.3-0.5-0.5-1.1-0.5-1.9v-8.2h-1.7
					v-1.7h1.7C120.4,631.5,120.4,628.1,120.4,628.1z"/>
				<path class="st10" d="M131.6,631.3c0.9,0,1.7,0.2,2.5,0.6c0.8,0.4,1.4,0.9,1.9,1.6c0.4,0.6,0.7,1.3,0.8,2.2
					c0.1,0.6,0.2,1.5,0.2,2.7h-9c0,1.3,0.3,2.3,0.9,3s1.4,1.1,2.6,1.1c1.1,0,1.9-0.4,2.6-1.1c0.4-0.4,0.6-0.9,0.8-1.4h2
					c-0.1,0.5-0.2,1-0.5,1.5c-0.3,0.6-0.6,1-1,1.4c-0.6,0.6-1.4,1-2.3,1.2c-0.5,0.1-1.1,0.2-1.7,0.2c-1.5,0-2.8-0.6-3.9-1.7
					c-1.1-1.1-1.6-2.7-1.6-4.7s0.5-3.6,1.6-4.8C128.5,631.9,129.9,631.3,131.6,631.3z M135,636.8c-0.1-0.9-0.3-1.6-0.6-2.2
					c-0.6-1-1.5-1.5-2.8-1.5c-1,0-1.8,0.3-2.4,1c-0.6,0.7-1,1.6-1,2.6h6.8V636.8z"/>
				<path class="st10" d="M139.7,631.6h2v2.1c0.2-0.4,0.6-0.9,1.2-1.5c0.6-0.6,1.4-0.9,2.2-0.9c0,0,0.1,0,0.2,0c0.1,0,0.2,0,0.5,0
					v2.2c-0.1,0-0.2,0-0.3,0s-0.2,0-0.3,0c-1,0-1.8,0.3-2.4,1c-0.6,0.7-0.8,1.4-0.8,2.3v7.1h-2.1v-12.3H139.7z"/>
			</g>
			<g>
				<path class="st10" d="M380.4,724.4c1.3,0,2.4,0.3,3.1,0.9c0.8,0.7,1.2,1.4,1.3,2.3h-1.4c-0.2-0.7-0.5-1.2-1-1.6
					c-0.5-0.4-1.1-0.5-2-0.5c-1,0-1.8,0.4-2.4,1.2c-0.6,0.7-0.9,1.9-0.8,3.3c0,1.2,0.4,2.2,1,2.9s1.5,1.1,2.6,1.1
					c1,0,1.8-0.5,2.3-1.3c0.3-0.4,0.5-1,0.6-1.7h1.4c-0.1,1.1-0.5,2-1.1,2.8c-0.8,0.9-1.9,1.4-3.3,1.5c-1.2,0-2.2-0.3-3.1-1
					c-1.1-0.9-1.7-2.4-1.8-4.4c-0.1-1.5,0.3-2.8,1.1-3.8C377.7,725,378.9,724.4,380.4,724.4z"/>
				<path class="st10" d="M392.1,730.4l-1.7-4.5l-1.5,4.7L392.1,730.4z M389.6,724.4l1.6-0.1l4.1,10.3l-1.5,0.1l-1.2-3.1l-4.1,0.1
					l-1,3.2h-1.4L389.6,724.4z"/>
				<path class="st10" d="M395.9,734.6c0-0.9,0.2-1.6,0.5-2.3s0.9-1.3,1.8-1.8l1.3-0.8c0.6-0.4,1-0.7,1.3-0.9
					c0.4-0.4,0.6-0.9,0.5-1.4c0-0.6-0.2-1.1-0.6-1.4c-0.4-0.3-0.8-0.5-1.4-0.5c-0.9,0-1.5,0.4-1.8,1.1c-0.2,0.4-0.3,0.9-0.2,1.5H396
					c0-0.9,0.1-1.6,0.4-2.2c0.5-1,1.5-1.5,2.9-1.6c1.2,0,2,0.2,2.6,0.9c0.6,0.6,0.8,1.3,0.9,2.1c0,0.8-0.2,1.5-0.8,2.1
					c-0.3,0.3-0.9,0.8-1.7,1.3l-1,0.6c-0.5,0.3-0.8,0.5-1.1,0.8c-0.5,0.4-0.7,0.9-0.8,1.4l5.5-0.2v1.2L395.9,734.6z"/>
			</g>
			<g>
				<path class="st10" d="M335.9,750.8c1.3,0,2.3,0.3,3.1,1c0.7,0.7,1.2,1.5,1.3,2.3h-1.4c-0.2-0.7-0.5-1.2-1-1.6
					c-0.5-0.4-1.1-0.6-2-0.5c-1,0-1.8,0.4-2.5,1.1c-0.6,0.7-0.9,1.8-0.9,3.3c0,1.2,0.3,2.2,0.9,2.9s1.4,1.1,2.6,1.1
					c1,0,1.8-0.4,2.3-1.3c0.3-0.4,0.5-1,0.6-1.7h1.4c-0.1,1.1-0.5,2-1.2,2.8c-0.8,0.9-1.9,1.4-3.3,1.4c-1.2,0-2.2-0.3-3.1-1
					c-1.1-0.9-1.7-2.4-1.7-4.5c0-1.5,0.3-2.8,1.1-3.8C333.2,751.3,334.4,750.8,335.9,750.8z"/>
				<path class="st10" d="M347.5,756.9l-1.7-4.6l-1.6,4.6H347.5z M345,750.8h1.6l4,10.3h-1.5L348,758l-4.1,0.1l-1.1,3.1h-1.4
					L345,750.8z"/>
			</g>
			<g>
				<path class="st10" d="M351.8,761.4c-1.2,0-2.1-0.3-2.6-0.9c-0.6-0.6-0.8-1.4-0.9-2.4h1.3c0.1,0.7,0.2,1.1,0.4,1.4
					c0.3,0.5,0.9,0.8,1.8,0.8c0.7,0,1.2-0.2,1.6-0.6c0.4-0.4,0.6-0.8,0.6-1.4c0-0.7-0.2-1.2-0.7-1.5c-0.4-0.3-1-0.4-1.8-0.4
					c-0.1,0-0.2,0-0.3,0c-0.1,0-0.2,0-0.3,0v-1.1c0.1,0,0.2,0,0.3,0c0.1,0,0.2,0,0.3,0c0.5,0,0.9-0.1,1.2-0.3
					c0.5-0.3,0.8-0.8,0.8-1.4c0-0.5-0.2-0.9-0.6-1.2s-0.8-0.4-1.3-0.4c-0.9,0-1.4,0.3-1.7,0.9c-0.2,0.3-0.3,0.8-0.3,1.3h-1.3
					c0-0.8,0.1-1.4,0.4-1.9c0.5-1,1.4-1.4,2.7-1.5c1,0,1.8,0.2,2.4,0.6c0.6,0.4,0.9,1.1,0.9,2c0,0.6-0.1,1.1-0.5,1.5
					c-0.2,0.2-0.5,0.4-0.8,0.6c0.5,0.1,1,0.4,1.3,0.8c0.3,0.4,0.5,0.9,0.5,1.5c0,1-0.3,1.8-0.9,2.4C353.9,761,353,761.4,351.8,761.4
					z"/>
			</g>
			<g>
				<path class="st10" d="M376.8,773.2c1.3,0,2.3,0.3,3.1,1s1.1,1.5,1.2,2.4h-1.4c-0.2-0.7-0.5-1.2-0.9-1.6c-0.5-0.4-1.1-0.6-2-0.6
					c-1,0-1.9,0.4-2.5,1.1c-0.6,0.7-0.9,1.8-0.9,3.3c0,1.2,0.3,2.2,0.9,3s1.4,1.1,2.5,1.1c1,0,1.8-0.4,2.4-1.2
					c0.3-0.4,0.5-1,0.6-1.7h1.4c-0.1,1.1-0.5,2-1.2,2.8c-0.8,0.9-1.9,1.3-3.3,1.3c-1.2,0-2.2-0.4-3-1.1c-1.1-1-1.6-2.5-1.6-4.5
					c0-1.5,0.4-2.8,1.2-3.8C374.1,773.8,375.3,773.2,376.8,773.2z"/>
				<path class="st10" d="M388.3,779.7l-1.6-4.6l-1.7,4.6H388.3z M386,773.5h1.6l3.8,10.4h-1.5l-1.1-3.1h-4.1l-1.1,3.1H382
					L386,773.5z"/>
				<path class="st10" d="M396.3,780.3v-4.6l-3.3,4.6H396.3z M396.3,783.9v-2.5h-4.5v-1.2l4.7-6.5h1.1v6.6h1.5v1.1h-1.5v2.5
					L396.3,783.9L396.3,783.9z"/>
			</g>
			<path class="st5" d="M398.9,791.4l-16,84.4"/>
			<g>
				<path class="st10" d="M342.1,885.4c0.8,0,1.4-0.1,1.9-0.2c0.9-0.3,1.6-0.9,2.2-1.7c0.5-0.7,0.8-1.6,1-2.6
					c0.1-0.6,0.2-1.2,0.2-1.8c0-2.1-0.4-3.7-1.3-4.9c-0.8-1.2-2.2-1.7-4-1.7H338v13L342.1,885.4L342.1,885.4z M335.7,870.4h6.9
					c2.3,0,4.1,0.8,5.4,2.5c1.1,1.5,1.7,3.4,1.7,5.7c0,1.8-0.3,3.4-1,4.9c-1.2,2.6-3.2,3.8-6.1,3.8h-6.8v-16.9H335.7z"/>
				<path class="st10" d="M357.5,874.7c0.9,0,1.7,0.2,2.5,0.6c0.8,0.4,1.4,0.9,1.9,1.6c0.4,0.6,0.7,1.3,0.8,2.2
					c0.1,0.6,0.2,1.5,0.2,2.7h-9c0,1.3,0.3,2.3,0.9,3c0.6,0.8,1.4,1.1,2.6,1.1c1.1,0,1.9-0.4,2.6-1.1c0.4-0.4,0.6-0.9,0.8-1.4h2
					c-0.1,0.5-0.2,1-0.5,1.5c-0.3,0.6-0.6,1-1,1.4c-0.6,0.6-1.4,1-2.3,1.2c-0.5,0.1-1.1,0.2-1.7,0.2c-1.5,0-2.8-0.6-3.9-1.7
					c-1.1-1.1-1.6-2.7-1.6-4.7s0.5-3.6,1.6-4.8C354.4,875.3,355.8,874.7,357.5,874.7z M360.8,880.2c-0.1-0.9-0.3-1.6-0.6-2.2
					c-0.6-1-1.5-1.5-2.8-1.5c-1,0-1.8,0.3-2.4,1s-1,1.6-1,2.6h6.8V880.2z"/>
				<path class="st10" d="M365.5,875h2v1.8c0.6-0.7,1.2-1.2,1.9-1.6c0.7-0.3,1.4-0.5,2.2-0.5c1.8,0,2.9,0.6,3.6,1.8
					c0.3,0.7,0.5,1.6,0.5,2.9v7.9h-2.1v-7.8c0-0.8-0.1-1.4-0.3-1.8c-0.4-0.8-1-1.2-2-1.2c-0.5,0-0.9,0.1-1.2,0.2
					c-0.6,0.2-1.1,0.5-1.5,1c-0.3,0.4-0.6,0.8-0.7,1.3c-0.1,0.4-0.2,1.1-0.2,1.9v6.5h-2.1L365.5,875L365.5,875z"/>
				<path class="st10" d="M379,871.5h2.1v3.4h2v1.7h-2v8.1c0,0.4,0.1,0.7,0.4,0.9c0.2,0.1,0.4,0.1,0.8,0.1c0.1,0,0.2,0,0.3,0
					c0.1,0,0.3,0,0.4,0v1.6c-0.2,0.1-0.5,0.1-0.7,0.1c-0.3,0-0.5,0-0.8,0c-1,0-1.6-0.2-2-0.7c-0.3-0.5-0.5-1.1-0.5-1.9v-8.2h-1.7
					V875h1.7L379,871.5L379,871.5z"/>
				<path class="st10" d="M386.8,884c0,0.6,0.2,1.1,0.7,1.4c0.4,0.3,1,0.5,1.6,0.5c0.7,0,1.4-0.2,2.1-0.5c1.2-0.6,1.7-1.5,1.7-2.8
					V881c-0.3,0.2-0.6,0.3-1,0.4c-0.4,0.1-0.8,0.2-1.2,0.2l-1.3,0.2c-0.8,0.1-1.3,0.3-1.7,0.5C387.1,882.7,386.8,883.2,386.8,884z
					 M391.8,879.8c0.5-0.1,0.8-0.3,1-0.6c0.1-0.2,0.1-0.5,0.1-0.8c0-0.7-0.3-1.2-0.8-1.5s-1.2-0.5-2.2-0.5c-1.1,0-1.9,0.3-2.3,0.9
					c-0.3,0.3-0.4,0.8-0.5,1.4h-1.9c0-1.5,0.5-2.6,1.5-3.2c0.9-0.6,2-0.9,3.3-0.9c1.5,0,2.6,0.3,3.5,0.8c0.9,0.6,1.3,1.4,1.3,2.6
					v7.1c0,0.2,0,0.4,0.1,0.5s0.3,0.2,0.6,0.2c0.1,0,0.2,0,0.3,0c0.1,0,0.2,0,0.4-0.1v1.5c-0.3,0.1-0.6,0.2-0.7,0.2
					c-0.2,0-0.4,0-0.7,0c-0.7,0-1.2-0.3-1.6-0.8c-0.2-0.3-0.3-0.6-0.4-1.1c-0.4,0.6-1,1-1.8,1.4s-1.7,0.6-2.6,0.6
					c-1.1,0-2.1-0.3-2.8-1s-1.1-1.6-1.1-2.6c0-1.1,0.4-2,1.1-2.7c0.7-0.6,1.7-1,2.8-1.2L391.8,879.8z"/>
				<path class="st10" d="M398.7,871.5h2.1v3.4h2v1.7h-2v8.1c0,0.4,0.1,0.7,0.4,0.9c0.2,0.1,0.4,0.1,0.8,0.1c0.1,0,0.2,0,0.3,0
					c0.1,0,0.3,0,0.4,0v1.6c-0.2,0.1-0.5,0.1-0.7,0.1c-0.3,0-0.5,0-0.8,0c-1,0-1.6-0.2-2-0.7c-0.3-0.5-0.5-1.1-0.5-1.9v-8.2H397V875
					h1.7V871.5z"/>
				<path class="st10" d="M410,874.7c0.9,0,1.7,0.2,2.5,0.6c0.8,0.4,1.4,0.9,1.9,1.6c0.4,0.6,0.7,1.3,0.8,2.2
					c0.1,0.6,0.2,1.5,0.2,2.7h-9c0,1.3,0.3,2.3,0.9,3c0.6,0.8,1.4,1.1,2.6,1.1c1.1,0,1.9-0.4,2.6-1.1c0.4-0.4,0.6-0.9,0.8-1.4h2
					c-0.1,0.5-0.2,1-0.5,1.5c-0.3,0.6-0.6,1-1,1.4c-0.6,0.6-1.4,1-2.3,1.2c-0.5,0.1-1.1,0.2-1.7,0.2c-1.5,0-2.8-0.6-3.9-1.7
					c-1.1-1.1-1.6-2.7-1.6-4.7s0.5-3.6,1.6-4.8C406.9,875.3,408.3,874.7,410,874.7z M413.3,880.2c-0.1-0.9-0.3-1.6-0.6-2.2
					c-0.6-1-1.5-1.5-2.8-1.5c-1,0-1.8,0.3-2.4,1s-1,1.6-1,2.6h6.8V880.2z"/>
			</g>
			<g>
				<path class="st10" d="M339.7,898.4c1,0,1.8,0.2,2.5,0.7c0.4,0.3,0.8,0.7,1.2,1.2v-1.6h1.9v11.2c0,1.6-0.2,2.8-0.7,3.7
					c-0.9,1.7-2.5,2.5-4.9,2.5c-1.3,0-2.4-0.3-3.4-0.9c-0.9-0.6-1.4-1.5-1.5-2.8h2.1c0.1,0.6,0.3,1,0.6,1.3c0.5,0.5,1.2,0.7,2.2,0.7
					c1.6,0,2.6-0.6,3.1-1.7c0.3-0.7,0.4-1.8,0.4-3.5c-0.4,0.6-0.9,1.1-1.5,1.4c-0.6,0.3-1.4,0.5-2.3,0.5c-1.3,0-2.5-0.5-3.5-1.4
					s-1.5-2.5-1.5-4.7c0-2.1,0.5-3.7,1.5-4.8C337,898.9,338.3,898.4,339.7,898.4z M343.4,904.7c0-1.5-0.3-2.7-0.9-3.4
					s-1.4-1.1-2.4-1.1c-1.5,0-2.5,0.7-3,2.1c-0.3,0.7-0.4,1.7-0.4,2.9c0,1.4,0.3,2.4,0.8,3.2c0.6,0.7,1.3,1.1,2.3,1.1
					c1.5,0,2.5-0.7,3.1-2C343.3,906.6,343.4,905.7,343.4,904.7z"/>
				<path class="st10" d="M356.2,898.6h2.3c-0.3,0.8-0.9,2.6-1.9,5.4c-0.8,2.1-1.4,3.8-1.9,5.2c-1.2,3.1-2,5.1-2.5,5.8s-1.3,1-2.5,1
					c-0.3,0-0.5,0-0.7,0s-0.4-0.1-0.6-0.1V914c0.4,0.1,0.6,0.2,0.8,0.2c0.2,0,0.3,0,0.4,0c0.4,0,0.7-0.1,0.8-0.2
					c0.2-0.1,0.3-0.3,0.5-0.5c0-0.1,0.2-0.4,0.4-0.9c0.2-0.6,0.4-1,0.5-1.3l-4.6-12.7h2.4l3.3,10L356.2,898.6z"/>
				<path class="st10" d="M360.3,898.6h2v2.1c0.2-0.4,0.6-0.9,1.2-1.5s1.4-0.9,2.2-0.9c0,0,0.1,0,0.2,0s0.2,0,0.5,0v2.2
					c-0.1,0-0.2,0-0.3,0c-0.1,0-0.2,0-0.3,0c-1,0-1.8,0.3-2.4,1s-0.8,1.4-0.8,2.3v7.1h-2.1v-12.3H360.3z"/>
				<path class="st10" d="M370.2,898.6v8.2c0,0.6,0.1,1.1,0.3,1.5c0.4,0.7,1.1,1.1,2.1,1.1c1.4,0,2.4-0.6,2.9-1.9
					c0.3-0.7,0.4-1.6,0.4-2.8v-6.1h2.1v12.3h-2v-1.8c-0.3,0.5-0.6,0.9-1,1.2c-0.8,0.6-1.8,1-2.9,1c-1.8,0-3-0.6-3.6-1.8
					c-0.3-0.6-0.5-1.5-0.5-2.5v-8.4H370.2z"/>
				<path class="st10" d="M382.5,907c0.1,0.7,0.2,1.2,0.5,1.6c0.5,0.7,1.4,1,2.7,1c0.8,0,1.4-0.2,2-0.5s0.9-0.9,0.9-1.6
					c0-0.5-0.2-0.9-0.7-1.2c-0.3-0.2-0.9-0.4-1.8-0.6l-1.6-0.4c-1.1-0.3-1.8-0.6-2.3-0.9c-0.9-0.6-1.3-1.3-1.3-2.3
					c0-1.2,0.4-2.1,1.3-2.8c0.8-0.7,2-1.1,3.4-1.1c1.9,0,3.2,0.5,4,1.6c0.5,0.7,0.8,1.4,0.7,2.2h-2c0-0.5-0.2-0.9-0.5-1.3
					c-0.5-0.5-1.3-0.8-2.5-0.8c-0.8,0-1.4,0.2-1.8,0.5s-0.6,0.7-0.6,1.2s0.3,1,0.8,1.3c0.3,0.2,0.8,0.4,1.4,0.5l1.4,0.3
					c1.5,0.4,2.5,0.7,3,1c0.8,0.5,1.2,1.4,1.2,2.5s-0.4,2-1.3,2.8c-0.8,0.8-2.1,1.2-3.8,1.2c-1.8,0-3.1-0.4-3.9-1.3
					c-0.8-0.8-1.2-1.9-1.2-3.1h2V907z"/>
			</g>
			<rect id="hippocampusPolygon" x="226.5" y="680.7" class="st13" width="323.1" height="340.6"/>
			<path id="cortexPolygon" class="st12" d="M276,617.6c-3.5,1.5-16.8,7-30,1c-3.1-1.4-5.7-3.2-7.8-5c2.3-10.6,4.8-21.1,7.1-31.7
				c6.7,8,16,11.8,23.7,9.4c1.7-0.5,4.3-1.7,6.9-4.5C276,597.1,276,607.4,276,617.6z"/>
			<path id="whiteMatterPolygon" class="st12" d="M253,552h-29.5v-37H253V552z"/>
		</g>
	</g>
</g>
</svg>
